<svg xmlns="http://www.w3.org/2000/svg" width="1200" height="360" viewBox="0 0 1200 360">
  <defs>
    <linearGradient id="g" x1="0" y1="0" x2="1" y2="1">
      <stop offset="0" stop-color="#0b1020"/>
      <stop offset="1" stop-color="#1a1036"/>
    </linearGradient>
    <linearGradient id="glow" x1="0" y1="0" x2="0" y2="1">
      <stop offset="0" stop-color="#ffffff" stop-opacity="0.18"/>
      <stop offset="1" stop-color="#ffffff" stop-opacity="0"/>
    </linearGradient>
  </defs>

  <rect width="1200" height="360" fill="url(#g)"/>
  <rect x="0" y="0" width="1200" height="360" fill="url(#glow)"/>

  <!-- subtle grid -->
  <g opacity="0.10" stroke="#ffffff" stroke-width="1">
    <path d="M0 60 H1200"/>
    <path d="M0 120 H1200"/>
    <path d="M0 180 H1200"/>
    <path d="M0 240 H1200"/>
    <path d="M0 300 H1200"/>
    <path d="M120 0 V360"/>
    <path d="M240 0 V360"/>
    <path d="M360 0 V360"/>
    <path d="M480 0 V360"/>
    <path d="M600 0 V360"/>
    <path d="M720 0 V360"/>
    <path d="M840 0 V360"/>
    <path d="M960 0 V360"/>
    <path d="M1080 0 V360"/>
  </g>

  <!-- city silhouette -->
  <g opacity="0.22" fill="#ffffff">
    <rect x="0" y="260" width="1200" height="100" opacity="0.10"/>
    <rect x="70" y="210" width="70" height="150" rx="2"/>
    <rect x="155" y="230" width="110" height="130" rx="2"/>
    <rect x="285" y="185" width="80" height="175" rx="2"/>
    <rect x="375" y="240" width="120" height="120" rx="2"/>
    <rect x="515" y="200" width="90" height="160" rx="2"/>
    <rect x="620" y="170" width="160" height="190" rx="2"/>
    <rect x="800" y="215" width="95" height="145" rx="2"/>
    <rect x="910" y="195" width="70" height="165" rx="2"/>
    <rect x="995" y="230" width="130" height="130" rx="2"/>
  </g>

  <!-- emblem -->
  <g transform="translate(930 52)" opacity="0.92">
    <circle cx="88" cy="88" r="78" fill="#ffffff" fill-opacity="0.06" stroke="#ffffff" stroke-opacity="0.25" stroke-width="2"/>
    <path d="M50 118 L88 46 L126 118 Z" fill="#ffffff" fill-opacity="0.18"/>
    <path d="M62 118 L88 70 L114 118 Z" fill="#ffffff" fill-opacity="0.22"/>
    <path d="M46 132 H130" stroke="#ffffff" stroke-opacity="0.30" stroke-width="2"/>
  </g>

  <!-- title -->
  <g font-family="-apple-system,BlinkMacSystemFont,Segoe UI,Roboto,Helvetica,Arial,sans-serif" fill="#ffffff">
    <text x="64" y="125" font-size="56" font-weight="800">AI City-State</text>
    <text x="64" y="170" font-size="22" opacity="0.85">Operating System Design × Political Governance</text>
    <text x="64" y="218" font-size="18" opacity="0.75">A short essay on agents, memory, tools, and security boundaries</text>
  </g>
</svg>
